<?xml version="1.0" encoding="utf-8"?>
<!-- Generator: Adobe Illustrator 25.3.1, SVG Export Plug-In . SVG Version: 6.00 Build 0)  -->
<svg version="1.1" id="Layer_1" xmlns="http://www.w3.org/2000/svg" xmlns:xlink="http://www.w3.org/1999/xlink" x="0px" y="0px"
	 viewBox="0 0 1308.7 500" style="enable-background:new 0 0 1308.7 500;" xml:space="preserve">
<g>
	<path d="M84.3,219.3H72.9c-4-8.5-12-13.5-22.3-13.5c-15.5,0-27.1,11.1-27.1,28.8c0,17.6,11.6,28.7,27.1,28.7
		c14.4,0,24.3-9.2,25.7-23.8H47.1v-7.7h39.5v7.3c-1.7,18.2-16.1,32.8-36,32.8c-20.7,0-36.8-15.3-36.8-37.4s16.2-37.5,36.8-37.5
		C66,197.3,78.8,205.3,84.3,219.3z"/>
</g>
<g>
	<path d="M153.3,76.5H203v7.8h-20v65.5h-9.6V84.3h-20.1V76.5z"/>
</g>
<g>
	<path d="M312.6,198.8c17.2,0,25.5,9.6,25.5,21.6c0,9.4-5.2,18.3-17.5,21l18.4,30.8h-11.5l-17.5-30h-11.6v30h-9.6v-73.4H312.6z
		 M312.6,206.7h-14.1v27.8h14.1c10.8,0,15.6-5.9,15.6-14.1C328.2,212.1,323.6,206.7,312.6,206.7z"/>
</g>
<path d="M196.4,376.7v8.9h-3.6c-3.3,8.9-6.6,20.2-7.8,33.6c-0.7,7.3-0.6,14-0.1,19.9h-4.1c-0.2-7.6-0.2-14.4-0.7-20.1
	c-0.6-7.6-5.9-25.4-9.1-33.5h-3.9v-8.9H196.4z"/>
<circle cx="181.8" cy="341.5" r="24.5"/>
<path d="M330.4,326.2L330.4,326.2l-6.6-6.3l0,0l-32.1,34.3L188.7,251.3L357,83l-7.5-7.5L181.2,243.8L12.9,75.5L5.4,83l168.3,168.3
	L70.8,354.2l-32.1-34.3l0,0l-6.6,6.2l0,0L5,351.8l6.3,6.6l0.1-0.1l27.2,28.1l6.9,6.9l0.6,0.6l135.1-135l135.1,135.1l0.6-0.6l6.9-6.9
	l27.2-28.1l0.1,0.1l6.3-6.6L330.4,326.2z M45.1,379.9l-27-27.9l6.3-6l26.9,27.7L45.1,379.9z M57.7,367.3L31,339.8l7.3-6.9l26,27.7
	L57.7,367.3z M298.1,360.6l26-27.8l7.3,6.9l-26.8,27.4L298.1,360.6z M317.3,379.9l-6.3-6.3l27-27.6l6.3,6L317.3,379.9z"/>
<g>
	<path d="M429.9,129.7h80.5v10.2h-34v112.4h-12.3V139.9h-34.2V129.7z"/>
	<path d="M608.7,195h-66.5v57.4h-12.3V129.7h12.3v55.1h66.5v-55.1h12.3v122.6h-12.3V195z"/>
	<path d="M713,139.7h-51.7v45.8h46.5v10.2h-46.5v46.5H713v10.2h-64V129.6h64V139.7z"/>
	<path d="M829.7,129.7v122.6h-12.3l-67.9-103.1v103.1h-12.3V129.7h12.3l67.9,103v-103H829.7z"/>
	<path d="M927.2,139.6l-61.7,101.9H928v10.9h-77v-9.8l61.7-101.9h-60.7v-10.9h75.1V139.6z"/>
	<path d="M1020.7,223.2h-55.8l-10.7,29.1h-13l44.7-121h13.9l44.6,121h-13L1020.7,223.2z M992.8,146.8l-24.2,66.3h48.4L992.8,146.8z"
		/>
	<path d="M1054.5,129.7h13.2l28.1,107.5l31.4-107.5h13.7l30.5,107.5l28.2-107.5h13.2L1178,252.3h-13.7l-30.9-104.5l-31.6,104.5
		l-13.3,0.2L1054.5,129.7z"/>
	<path d="M1243.7,129.7v112.6h44v10h-56.3V129.7H1243.7z"/>
</g>
<g>
	<path d="M500.9,313.9h-16.8c-3.3-6.2-9.4-9.4-17.1-9.4c-13,0-22.1,9.3-22.1,23.8c0,14.8,9.2,24,22.7,24c11.3,0,18.5-6.5,20.6-16.8
		h-25v-11.2h39.4V337c-2.9,14.8-16.2,28.4-35.6,28.4c-21.2,0-37.2-15.3-37.2-37.1c0-21.8,16.1-37.2,37.1-37.2
		C483.3,291.1,496.2,299.3,500.9,313.9z"/>
	<path d="M564.6,365.5c-20.5,0-37.3-15.4-37.3-37.3c0-21.8,16.8-37.2,37.3-37.2c20.7,0,37.2,15.4,37.2,37.2
		C601.9,350.1,585.3,365.5,564.6,365.5z M564.6,352.5c13.1,0,22.2-9.5,22.2-24.3c0-14.8-9.1-24.1-22.2-24.1
		c-13.2,0-22.3,9.3-22.3,24.1C542.3,343,551.4,352.5,564.6,352.5z"/>
	<path d="M644.6,292v61.2h24v11.6H630V292H644.6z"/>
	<path d="M695.2,292h44.9v11.8h-30.3v18.7H733V334h-23.3v30.8h-14.6V292z"/>
	<path d="M837.2,292c17.5,0,26.3,10.1,26.3,22.3c0,8.9-4.9,17.8-16.6,21l17.4,29.5h-16.9l-16.1-28.4h-6.9v28.4h-14.6V292H837.2z
		 M836.6,304.1h-12.2v21.4h12.2c8.1,0,11.8-4.3,11.8-10.8C848.4,308.2,844.8,304.1,836.6,304.1z"/>
	<path d="M936.2,303.8h-27.6V322h24.5v11.6h-24.5v19.3h27.6v11.9H894v-72.9h42.2V303.8z"/>
	<path d="M991.9,365.5c-15.1,0-26.8-7.9-27-21.7h15.6c0.4,5.8,4.3,9.7,11.1,9.7c6.9,0,10.9-3.6,10.9-8.9c0-15.7-37.5-6.3-37.4-32.6
		c0-13.1,10.6-21.1,25.6-21.1c14.9,0,25.1,7.6,26.1,20.7h-16.1c-0.3-4.8-4.2-8.5-10.4-8.7c-5.7-0.2-10,2.6-10,8.5
		c0,14.6,37.3,6.5,37.3,32.1C1017.6,355.2,1008.5,365.5,991.9,365.5z"/>
	<path d="M1081.3,365.5c-20.5,0-37.3-15.4-37.3-37.3c0-21.8,16.8-37.2,37.3-37.2c20.7,0,37.2,15.4,37.2,37.2
		C1118.6,350.1,1102,365.5,1081.3,365.5z M1081.3,352.5c13.1,0,22.2-9.5,22.2-24.3c0-14.8-9.1-24.1-22.2-24.1
		c-13.2,0-22.3,9.3-22.3,24.1C1059,343,1068.1,352.5,1081.3,352.5z"/>
	<path d="M1174,292c17.5,0,26.3,10.1,26.3,22.3c0,8.9-4.9,17.8-16.6,21l17.4,29.5h-16.9l-16.1-28.4h-6.9v28.4h-14.6V292H1174z
		 M1173.5,304.1h-12.2v21.4h12.2c8.1,0,11.8-4.3,11.8-10.8C1185.3,308.2,1181.6,304.1,1173.5,304.1z"/>
	<path d="M1227,292h53.4v11.8H1261v61h-14.6v-61H1227V292z"/>
</g>
</svg>
