<?xml version="1.0" encoding="utf-8"?>
<!-- Generator: Adobe Illustrator 25.3.0, SVG Export Plug-In . SVG Version: 6.00 Build 0)  -->
<svg version="1.1" id="Layer_1" xmlns="http://www.w3.org/2000/svg" xmlns:xlink="http://www.w3.org/1999/xlink" x="0px" y="0px"
	 viewBox="0 0 500 500" style="enable-background:new 0 0 500 500;" xml:space="preserve">
<style type="text/css">
	.st0{fill:#2E3192;}
	.st1{fill:none;stroke:#E1E5B3;stroke-width:10;stroke-miterlimit:10;}
</style>
<path class="st0" d="M281.1,286.1c0,0.1,0,0.2,0.1,0.3C281.1,286.4,281.1,286.3,281.1,286.1z"/>
<path class="st0" d="M283.8,296.1c0-0.1,0-0.1,0-0.1S283.8,296,283.8,296.1L283.8,296.1z"/>
<path class="st0" d="M284.8,279.5c0-0.2-0.1-0.3-0.1-0.6C284.7,279.1,284.8,279.3,284.8,279.5z"/>
<path class="st0" d="M284.8,279.6v-0.1C284.8,279.5,284.8,279.5,284.8,279.6L284.8,279.6z"/>
<path class="st0" d="M281.1,286.1c0,0.1,0,0.2,0.1,0.3C281.1,286.4,281.1,286.3,281.1,286.1z"/>
<path class="st0" d="M283.8,296.1c0-0.1,0-0.1,0-0.1S283.8,296,283.8,296.1L283.8,296.1z"/>
<path class="st0" d="M284.8,279.5c0-0.2-0.1-0.3-0.1-0.6C284.7,279.1,284.8,279.3,284.8,279.5z"/>
<path class="st0" d="M220,56C220,56,220.1,56,220,56c-0.2,0.5,0.1,0.8,0.6,1.5C220,56.7,219.3,56.8,220,56z"/>
<path class="st0" d="M220.1,55.8c0-0.1,0.1-0.2,0.2-0.5c0.2-0.2,0.3-0.3,0.5-0.5C220.6,55.3,220.4,55.5,220.1,55.8z"/>
<path class="st0" d="M220.8,54.9c0.1-0.1,0.1-0.2,0.2-0.3C221.1,54.6,220.9,54.7,220.8,54.9z"/>
<path class="st0" d="M325.9,270.2L325.9,270.2L325.9,270.2L325.9,270.2z"/>
<path class="st0" d="M326.9,273.6C326.9,273.6,326.9,273.5,326.9,273.6c0-0.1,0.1-0.3,0.1-0.6C327.1,273.3,327,273.5,326.9,273.6z"
	/>
<path class="st0" d="M328,277.1L328,277.1c0,0,0-0.1,0-0.2C328,277.1,328,277.1,328,277.1z"/>
<path class="st0" d="M340.9,281L340.9,281c0,0,0.2-0.3,0.3-0.6C341.1,280.7,340.9,281,340.9,281z"/>
<path class="st0" d="M363,280.8L363,280.8C363.2,281.2,363,281.2,363,280.8L363,280.8z"/>
<path class="st0" d="M284.8,279.6v-0.1C284.8,279.5,284.8,279.5,284.8,279.6L284.8,279.6z"/>
<path class="st0" d="M320.3,310.3L320.3,310.3L320.3,310.3C320.3,310.2,320.3,310.3,320.3,310.3z"/>
<polygon class="st1" points="484.3,446.8 14.8,446.8 14.8,263.7 14.8,41.8 484.3,41.8 "/>
<polyline class="st1" points="484.3,174.4 254.8,319.4 136.9,244.9 14.8,338.8 "/>
<circle class="st1" cx="254.8" cy="163.8" r="73.4"/>
</svg>
