<?xml version="1.0" encoding="utf-8"?>
<!-- Generator: Adobe Illustrator 25.3.0, SVG Export Plug-In . SVG Version: 6.00 Build 0)  -->
<svg version="1.1" id="Layer_1" xmlns="http://www.w3.org/2000/svg" xmlns:xlink="http://www.w3.org/1999/xlink" x="0px" y="0px"
	 viewBox="0 0 500 500" style="enable-background:new 0 0 500 500;" xml:space="preserve">
<style type="text/css">
	.st0{fill:#2E3192;}
	.st1{fill:none;stroke:#C1DBCD;stroke-width:10;stroke-miterlimit:10;}
	.st2{fill:#C1DBCD;}
</style>
<path class="st0" d="M281.1,286.1c0,0.1,0,0.2,0.1,0.3C281.1,286.4,281.1,286.3,281.1,286.1z"/>
<path class="st0" d="M283.8,296.1c0-0.1,0-0.1,0-0.1S283.8,296,283.8,296.1L283.8,296.1z"/>
<path class="st0" d="M284.8,279.5c0-0.2-0.1-0.3-0.1-0.6C284.7,279.1,284.8,279.3,284.8,279.5z"/>
<path class="st0" d="M284.8,279.6v-0.1C284.8,279.5,284.8,279.5,284.8,279.6L284.8,279.6z"/>
<path class="st0" d="M281.1,286.1c0,0.1,0,0.2,0.1,0.3C281.1,286.4,281.1,286.3,281.1,286.1z"/>
<path class="st0" d="M283.8,296.1c0-0.1,0-0.1,0-0.1S283.8,296,283.8,296.1L283.8,296.1z"/>
<path class="st0" d="M284.8,279.5c0-0.2-0.1-0.3-0.1-0.6C284.7,279.1,284.8,279.3,284.8,279.5z"/>
<path class="st0" d="M325.9,270.2L325.9,270.2L325.9,270.2L325.9,270.2z"/>
<path class="st0" d="M326.9,273.6C326.9,273.6,326.9,273.5,326.9,273.6c0-0.1,0.1-0.3,0.1-0.6C327.1,273.3,327,273.5,326.9,273.6z"
	/>
<path class="st0" d="M328,277.1L328,277.1c0,0,0-0.1,0-0.2C328,277.1,328,277.1,328,277.1z"/>
<path class="st0" d="M340.9,281L340.9,281c0,0,0.2-0.3,0.3-0.6C341.1,280.7,340.9,281,340.9,281z"/>
<path class="st0" d="M363,280.8L363,280.8C363.2,281.2,363,281.2,363,280.8L363,280.8z"/>
<path class="st0" d="M284.8,279.6v-0.1C284.8,279.5,284.8,279.5,284.8,279.6L284.8,279.6z"/>
<path class="st0" d="M320.3,310.3L320.3,310.3L320.3,310.3C320.3,310.2,320.3,310.3,320.3,310.3z"/>
<path class="st1" d="M252.4,58.1c-3.7,0-7.8,0.6-13.8,1.5c-7.2,1-12.3,2-17.9,5.6c-5,3.2-7.9,6.9-10.3,10.4
	c-6.6,8.8-5.6,12.9-11,18.6c-2.1,2.2-5,4.4-12.5,7.6c-15.9,6.7-30.7,8.5-35.9,9c-4.6,0.5-10.2,0.8-16.4,0.8c-7.5,0-16-0.5-25.3-1.7
	l-8,1.6c-2.7,1.3-5.3,2.5-8,3.7c-13,6.1-25.9,12.2-38.9,18.2c-5.9,11.1-12.5,24.5-19.3,40.1c-13.2,30.3-20.3,46.8-21.4,69.7
	C12.4,267,18.3,280.6,20,284c5.2,11.2,12.3,18.9,17.3,23.5l40.1,10.3c7.9,9,15.6,17.9,23.5,27c3,8.1,6,16.1,9,24.2
	c6,8.1,11.9,16.1,17.9,24.2c4.4,12.4,8.8,24.9,13.1,37.3c11,9.6,22.1,19.3,33.1,29.1c14.4,7.6,31.8,15.5,52.4,22.1
	c15.2,4.9,29.4,8.1,42.1,10.3c14.7,0.2,29.4,0.5,44.2,0.7c2.8-2.1,5.6-4.2,8.3-6.3c2.5-4.9,5.1-9.6,7.6-14.5
	c2.3-11,4.6-22.1,6.9-33.1c11.9-8.1,24-16.1,35.9-24.2c1.9-6.7,4.9-16.8,9-28.9c8.3-24.7,18.2-53.7,38-84.9
	c6.7-10.7,17.3-25.7,32.4-42.1c6.3-3.7,12.4-7.4,18.6-11.1c2.8-14.9,5.6-29.9,8.3-44.9c-4.3-14.4-8-28.6-11.6-43
	c-3.1-1.3-7.6-3.2-13.1-5.6c-9.1-3.8-22.9-9.5-30.3-12.4c-10.8-4.2-32.1-12.3-58.7-15.2c-8.8-0.9-17.1-1.3-28.2-5.6
	c-6.8-2.7-12.2-5.8-18.6-9.6c-10.5-6.4-15.9-9.5-21.4-15.2c-7.8-8-5.4-10.2-13.8-20c-5.9-7.1-12.4-14.6-22.8-17.3
	C256.9,58.4,254.7,58.1,252.4,58.1L252.4,58.1z"/>
<g>
	<path class="st2" d="M128,28.9c-4.9,0-10.5,0.9-16,3.7c-13.7,6.8-16.5,19.5-28.1,31c-7.3,7.3-19.5,15.3-40.1,17.3
		C54,84.7,62.8,86,70.1,86c6.5,0,11.8-1,16.1-2.4c9.3-2.8,15.7-7.4,25.1-7.4c1,0,1.9,0.1,2.9,0.1c9.9,1,17.6,6.6,22.5,10.9
		c0-19.2,0-38.4,0-57.5C134.3,29.3,131.3,28.9,128,28.9L128,28.9z"/>
</g>
<line class="st1" x1="152.1" y1="244" x2="152.1" y2="30.4"/>
</svg>
