<?xml version="1.0" encoding="utf-8"?>
<svg id="master-artboard" viewBox="0 0 1400 980" version="1.1" xmlns="http://www.w3.org/2000/svg" x="0px" y="0px" style="enable-background:new 0 0 1400 980;" width="1400px" height="980px"><defs><style id="ee-google-fonts">@import url(https://fonts.googleapis.com/css?family=Rubik:300,300italic,400,400italic,500,500italic,700,700italic,900,900italic);</style></defs><rect id="ee-background" x="0" y="0" width="1400" height="980" style="fill: white; fill-opacity: 0; pointer-events: none;"/>








































<g transform="matrix(1.66713011264801, 0, 0, 1.66713011264801, 276.48310857726165, 63.171834513593296)"><g>
	<path d="M113.4,197.7H97.7C92.2,186,81.2,179.2,67,179.2c-21.3,0-37.2,15.3-37.2,39.6c0,24.2,15.9,39.5,37.2,39.5&#10;&#9;&#9;c19.8,0,33.4-12.7,35.4-32.7H62.2V215h54.3v10.1c-2.3,25-22.1,45.1-49.5,45.1c-28.4,0-50.6-21.1-50.6-51.4s22.3-51.5,50.6-51.5&#10;&#9;&#9;C88.2,167.4,105.9,178.4,113.4,197.7z" style="fill: rgb(255, 255, 255);"/>
</g><g>
	<path d="M208.3,1.3h68.3V12h-27.5v90.1h-13.2V12h-27.6V1.3z" style="fill: rgb(255, 255, 255);"/>
</g><g>
	<path d="M427.3,169.5c23.7,0,35,13.2,35,29.7c0,12.9-7.1,25.2-24,28.9l25.3,42.3h-15.8l-24-41.2h-15.9v41.2h-13.2V169.5H427.3z&#10;&#9;&#9; M427.3,180.4h-19.4v38.2h19.4c14.9,0,21.4-8.1,21.4-19.4C448.7,187.8,442.4,180.4,427.3,180.4z" style="fill: rgb(255, 255, 255);"/>
</g><path d="M267.5,414v12.3h-4.9c-4.6,12.2-9.1,27.8-10.7,46.2c-0.9,10.1-0.8,19.3-0.2,27.4h-5.6c-0.3-10.5-0.3-19.8-0.9-27.6&#10;&#9;c-0.8-10.4-8.1-34.9-12.5-46h-5.4V414H267.5z" style="fill: rgb(255, 255, 255);"/><path d="M 281.099995 365.700012 A 33.700001 33.700001 0 0 1 247.399994 399.400013 A 33.700001 33.700001 0 0 1 213.699993 365.700012 A 33.700001 33.700001 0 0 1 247.399994 332.000011 A 33.700001 33.700001 0 0 1 281.099995 365.700012 Z" style="fill: rgb(255, 255, 255);"/><path d="M451.7,344.7L451.7,344.7l-9.1-8.6l0,0l-44.1,47.1L257,241.7L488.3,10.3L478,0L246.6,231.3L15.3,0L4.9,10.3l231.4,231.4&#10;&#9;L94.8,383.1l-44.1-47.1l0,0l-9.1,8.5l0,0L4.4,379.8l8.6,9.1l0.2-0.2l37.4,38.6l9.5,9.5l0.8,0.8L246.6,252l185.7,185.7l0.8-0.8&#10;&#9;l9.5-9.5l37.4-38.6l0.2,0.2l8.6-9.1L451.7,344.7z M59.5,418.5l-37.1-38.4l8.6-8.2L68,410L59.5,418.5z M76.9,401.1l-36.8-37.7&#10;&#9;l10.1-9.5L85.9,392L76.9,401.1z M407.3,392l35.8-38.2l10.1,9.5l-36.8,37.7L407.3,392z M433.8,418.5l-8.6-8.6l37.1-38l8.6,8.2&#10;&#9;L433.8,418.5z" style="fill: rgb(255, 255, 255);"/></g></svg>