<svg xmlns="http://www.w3.org/2000/svg" width="30" height="30" viewBox="0 0 30 30">
    <defs>
        <clipPath id="clip-path">
            <path id="Rectangle_1896" fill="#fff" stroke="#707070" d="M0 0H30V30H0z" transform="translate(947 905)"/>
        </clipPath>
        <style>
            .cls-3{fill:#606060}
        </style>
    </defs>
    <g id="Mask_Group_198" clip-path="url(#clip-path)" transform="translate(-947 -905)">
        <g id="_10_food" transform="translate(947 905.576)">
            <g id="Group_341" transform="translate(6.308 17.708)">
                <g id="Group_340">
                    <path id="Rectangle_1899" d="M0 0H0.934V0.934H0z" class="cls-3"/>
                </g>
            </g>
            <g id="Group_343" transform="translate(5.845 19.569)">
                <g id="Group_342">
                    <path id="Rectangle_1900" d="M0 0H0.934V0.934H0z" class="cls-3"/>
                </g>
            </g>
            <g id="Group_345" transform="translate(11.434 17.238)">
                <g id="Group_344">
                    <path id="Rectangle_1901" d="M0 0H0.934V0.934H0z" class="cls-3"/>
                </g>
            </g>
            <g id="Group_347" transform="translate(14.229 19.569)">
                <g id="Group_346">
                    <path id="Rectangle_1902" d="M0 0H0.934V0.934H0z" class="cls-3"/>
                </g>
            </g>
            <g id="Group_349" transform="translate(10.037 20.033)">
                <g id="Group_348">
                    <path id="Rectangle_1903" d="M0 0H0.934V0.934H0z" class="cls-3"/>
                </g>
            </g>
            <path id="Path_1182" d="M20.062 21.065l-.017-.3a4.177 4.177 0 0 1-1.5-.371 6.388 6.388 0 0 1 .07.661H3.5a7.325 7.325 0 0 1 7.561-6.6 8.111 8.111 0 0 1 1.966.238l-.093-1.508a9.455 9.455 0 0 0-1.873-.18 8.768 8.768 0 0 0-9.01 8.071 2.141 2.141 0 0 0 .249 4.268h.07a3.069 3.069 0 0 0 2.65 2.3 2.965 2.965 0 0 0 .325.017h11.174a3.221 3.221 0 0 0 .475-.035c.046-.006.1-.017.145-.023a3.211 3.211 0 0 0 2.238-1.716 3.436 3.436 0 0 0 .215-.545h.354a2.141 2.141 0 0 0 .116-4.279zm-3.543 5.149H5.34a1.615 1.615 0 0 1-1.432-.87h14.119a1.85 1.85 0 0 1-.493.545 1.762 1.762 0 0 1-1.015.324zm3.427-2.319H2.284a.69.69 0 0 1-.162-1.357.612.612 0 0 1 .18-.023H20a.7.7 0 0 1 .649.69.706.706 0 0 1-.703.689z" class="cls-3" transform="translate(-.151 1.183)"/>
            <path id="Path_1183" d="M12.652 8.28l.023.371h11.66l.029-.475zM13.5 21.8h-1.741l.093 1.45H13.6zM24.335 8.646l-.968 17.986h-7.491a1.749 1.749 0 0 1-1.015.325h-2.772l.087 1.415h12.832l.249-4.6.818-15.122h-1.74zM13.684 24.637h-1.74l.093 1.45h1.745zm-.348-5.508h-.615v.934h.673zm-.661-10.483H10.93l.336 5.282a9.574 9.574 0 0 1 1.78.533z" class="cls-3" transform="translate(1.508 .44)"/>
            <path id="Path_1184" d="M26.64 5.341H13.872C12.133 1.4 11.582.923 11.333.709l-1.142 1.316c.087.075.522.562 1.774 3.317h-1.241a2.227 2.227 0 1 0 0 4.453H26.64a2.227 2.227 0 1 0 0-4.453zm0 2.714H10.724a.487.487 0 1 1 0-.974H26.64a.49.49 0 0 1 .487.487.483.483 0 0 1-.487.487z" class="cls-3" transform="translate(1.133 -.709)"/>
            <path id="Path_1185" d="M18.6 12.367a4.265 4.265 0 0 0-3.838 2.418A9.1 9.1 0 0 0 13 13.816a9.443 9.443 0 0 0-1.78-.533l.093 1.508a7.785 7.785 0 0 1 1.786.678 8.054 8.054 0 0 1 1.252.823 6.8 6.8 0 0 1 2.482 4.2 4.207 4.207 0 0 0 1.5.371c.087.006.168.006.255.006a4.25 4.25 0 0 0 .012-8.5zm0 6.767a2.713 2.713 0 0 1-.62-.075A8.239 8.239 0 0 0 16.162 16a2.514 2.514 0 1 1 2.438 3.133z" class="cls-3" transform="translate(1.552 1.085)"/>
        </g>
    </g>
</svg>
