<svg xmlns="http://www.w3.org/2000/svg" width="30" height="30" viewBox="0 0 30 30">
    <defs>
        <clipPath id="3yv5dlvu1a">
            <path fill="#fff" stroke="#707070" d="M0 0H30V30H0z" transform="translate(499 905)"/>
        </clipPath>
    </defs>
    <g clip-path="url(#3yv5dlvu1a)" transform="translate(-499 -905)">
        <g>
            <path fill="none" stroke="#606060" stroke-miterlimit="10" stroke-width="1.584px" d="M27.71 18.32l-9.125 9.125a4.971 4.971 0 0 1-7.023 0L2.443 18.32a4.971 4.971 0 0 1 0-7.023l9.125-9.113a4.971 4.971 0 0 1 7.023 0L27.71 11.3a4.963 4.963 0 0 1 0 7.02z" transform="translate(499.915 905.917) translate(-.99 -.731)"/>
            <path fill="#606060" d="M19.289 9.942l-3.106 4.038a.926.926 0 0 1-.725.359.9.9 0 0 1-.554-.189.913.913 0 0 1-.171-1.279l1.858-2.418a4.468 4.468 0 0 0-.7.146l-.067.018a3.757 3.757 0 0 0-1.766 1.109c-1.011 1.163-.877 5.537-.8 8.15.024.774.049 1.5.049 2.114a.914.914 0 1 1-1.827 0c0-.585-.024-1.3-.049-2.059-.131-4.361-.131-7.831 1.243-9.405a5.59 5.59 0 0 1 2.7-1.681c.134-.043.268-.073.408-.1l-2.036-1.276a.915.915 0 1 1 .969-1.553l4.331 2.7a.9.9 0 0 1 .414.615.881.881 0 0 1-.171.711z" transform="translate(499.915 905.917) translate(.608 .045)"/>
        </g>
    </g>
</svg>
