<svg xmlns="http://www.w3.org/2000/svg" width="20" height="20" viewBox="0 0 20 20">
    <defs>
        <clipPath id="4s7e5qisja">
            <path fill="none" stroke="#606060" d="M0 0H20V20H0z" transform="translate(300 39)"/>
        </clipPath>
    </defs>
    <g clip-path="url(#4s7e5qisja)" transform="translate(-300 -39)">
        <g fill="none">
            <path d="M19.272 12.267a30.022 30.022 0 0 1-2.488 2.447c-1.662 1.556-2.258 1.967-3.315 3.084a24.2 24.2 0 0 0-2 2.405.3.3 0 0 1-.476 0A26.021 26.021 0 0 0 8.875 17.8c-1.057-1.117-1.653-1.528-3.315-3.084a30.022 30.022 0 0 1-2.488-2.447C2.888 12.018-.053 8 1.761 4.613a6 6 0 0 1 3.527-2.738 5.529 5.529 0 0 1 2.932.037 5.465 5.465 0 0 1 2.719 1.874.3.3 0 0 0 .466 0 5.354 5.354 0 0 1 5.651-1.911 6 6 0 0 1 3.527 2.738C22.4 8 19.461 12.018 19.272 12.267z" transform="translate(298.828 37.99)"/>
            <path fill="#606060" d="M11.218 18.879c.483-.615.993-1.208 1.525-1.769.664-.702 1.164-1.146 1.797-1.708.424-.377.905-.805 1.56-1.418 1.326-1.242 2.126-1.991 2.376-2.322.027-.036 2.767-3.702 1.226-6.577-.876-1.634-2.678-2.18-2.906-2.244-.369-.097-.752-.145-1.139-.145-.432 0-.863.06-1.247.174-1.089.325-1.808 1.015-2.22 1.535-.247.315-.618.496-1.018.496s-.77-.18-1.02-.498c-.406-.518-1.12-1.205-2.214-1.532-.495-.145-.954-.175-1.252-.175-.386 0-.769.048-1.138.145-.229.064-2.03.61-2.905 2.244-1.503 2.802 1.081 6.381 1.23 6.583.252.33 1.05 1.08 2.371 2.316.655.613 1.136 1.04 1.56 1.418.634.562 1.134 1.006 1.798 1.708.074.08.153.161.234.247.409.428.89.93 1.382 1.522m.014 1.446c-.089 0-.178-.04-.238-.117-.747-1.002-1.541-1.8-2.119-2.41-1.057-1.117-1.652-1.528-3.314-3.084-1.46-1.367-2.189-2.05-2.489-2.447-.184-.25-3.125-4.27-1.31-7.654 1.107-2.068 3.342-2.687 3.526-2.738.508-.133.982-.18 1.398-.18.765 0 1.33.157 1.534.217 1.408.42 2.285 1.32 2.719 1.874.06.077.147.115.233.115.087 0 .173-.038.233-.115.434-.549 1.311-1.454 2.72-1.874.2-.06.767-.216 1.532-.216.417 0 .892.046 1.399.18.185.05 2.42.669 3.527 2.737 1.814 3.384-1.122 7.405-1.311 7.654-.3.397-1.03 1.08-2.488 2.447-1.662 1.556-2.258 1.967-3.315 3.084-.577.61-1.27 1.403-1.999 2.405-.058.081-.148.122-.238.122z" transform="translate(298.828 37.99)"/>
        </g>
    </g>
</svg>
