<svg xmlns="http://www.w3.org/2000/svg" width="19.918" height="20" viewBox="0 0 19.918 20">
    <g fill="none" fill-rule="evenodd">
        <path d="M18.754 17.5H12.5a2.5 2.5 0 0 1-5.005 0H1.236a1.2 1.2 0 0 1-1.126-.875 1.334 1.334 0 0 1 .375-1.375 5.031 5.031 0 0 0 2-4V7.5a7.508 7.508 0 0 1 15.015 0v3.75a5.031 5.031 0 0 0 2 4 1.183 1.183 0 0 1 .375 1.375 1.2 1.2 0 0 1-1.121.875z" transform="translate(-.063)"/>
        <path fill="#606060" d="M9.995 19c.828 0 1.502-.673 1.502-1.5v-1h7.257c.05 0 .144-.072.156-.118l.027-.107.038-.077c-.014-.036-.055-.11-.146-.208-1.5-1.222-2.327-2.903-2.327-4.74V7.5c0-1.728-.679-3.358-1.912-4.59C13.357 1.68 11.725 1 9.995 1c-1.73 0-3.363.679-4.596 1.91C4.166 4.143 3.487 5.773 3.487 7.5v3.75c0 1.858-.845 3.556-2.378 4.781l-.017.014c-.024.063-.046.205-.012.337.011.046.106.118.156.118h7.256v1c0 .827.674 1.5 1.503 1.5m0 1c-1.377 0-2.503-1.125-2.503-2.5H1.236c-.5 0-1.001-.375-1.127-.875-.125-.5 0-1.125.376-1.375 1.251-1 2.002-2.375 2.002-4V7.5c0-4.125 3.378-7.5 7.508-7.5 4.129 0 7.507 3.375 7.507 7.5v3.75c0 1.625.751 3 2.002 4 .376.375.626.875.376 1.375-.125.5-.626.875-1.126.875h-6.257c0 1.375-1.126 2.5-2.502 2.5z" transform="translate(-.063)"/>
    </g>
</svg>
