<svg xmlns="http://www.w3.org/2000/svg" width="30" height="30" viewBox="0 0 30 30">
    <defs>
        <clipPath id="clip-path">
            <path id="Rectangle_1897" fill="#fff" stroke="#707070" d="M0 0H30V30H0z" transform="translate(1159 905)"/>
        </clipPath>
        <style>
            .cls-3,.cls-4{fill:none;stroke:#606060;stroke-miterlimit:10;stroke-width:1.717px}.cls-4{stroke-linecap:round}
        </style>
    </defs>
    <g id="Mask_Group_199" clip-path="url(#clip-path)" transform="translate(-1159 -905)">
        <g id="place_near" transform="translate(1160.86 905.985)">
            <path id="Path_1186" d="M27.315 10.974c0 3.407-5.447 14.426-6.173 14.426-.858 0-6.173-11.019-6.173-14.426a6.173 6.173 0 1 1 12.346 0z" class="cls-3" transform="translate(-1.034 -.998)"/>
            <path id="Path_1187" d="M9.09 4.093c0 1.433-2.284 6.048-2.588 6.048-.363 0-2.588-4.622-2.588-6.048a2.588 2.588 0 0 1 5.176 0z" class="cls-3" transform="translate(-2.734 -1.505)"/>
            <g id="Group_351" transform="translate(0 11.336)">
                <g id="Group_350">
                    <path id="Path_1188" d="M5.534 11.33c-.409.191-.687.667-1.162 1.644" class="cls-4" transform="translate(-2.664 -11.33)"/>
                    <path id="Path_1189" fill="none" stroke="#606060" stroke-dasharray="58.725 58.725" stroke-linecap="round" stroke-miterlimit="10" stroke-width="1.717px" d="M3.081 15.839a7.764 7.764 0 0 0-.158 2.39c.31 3.757 3.3 6.114 4.093 6.734 3.255 2.562 7.335 2.588 10.28 2.126" transform="translate(-2.892 -10.636)"/>
                    <path id="Path_1190" d="M17.017 25.333a16.346 16.346 0 0 0 1.954-.614" class="cls-4" transform="translate(-.718 -9.27)"/>
                </g>
            </g>
        </g>
    </g>
</svg>
