<svg xmlns="http://www.w3.org/2000/svg" width="30" height="30" viewBox="0 0 30 30">
    <defs>
        <clipPath id="qky3an0mxa">
            <path fill="#fff" stroke="#707070" d="M0 0H30V30H0z" transform="translate(719 905)"/>
        </clipPath>
    </defs>
    <g clip-path="url(#qky3an0mxa)" transform="translate(-719 -905)">
        <g>
            <path fill="#606060" d="M30.6 17.909l-.006-1.537v-.443a3.842 3.842 0 0 0-.111-.639 4.183 4.183 0 0 0-.307-.842 3.575 3.575 0 0 0-1.125-1.334 3.647 3.647 0 0 0-1.574-.627l-1.593-.307-1.236-.24-1.826-.357-5.269-4.329a.792.792 0 0 0-.357-.166 38.486 38.486 0 0 0-6.825-.56 37.279 37.279 0 0 0-4.753.344A10.011 10.011 0 0 0 4.469 7l-2 .043.037 1.537.516-.012a25.75 25.75 0 0 0-2.304 3.211.79.79 0 0 0-.111.406l.037 2.675v.018l.006.4a.85.85 0 0 0 .061.3l.35.8.025.055v.578l-.381.9-.018.043a.818.818 0 0 0-.061.3v1.045a.766.766 0 0 0 .769.769H1.4l3.093-.031a3.845 3.845 0 0 0 7.489-.043h7.286a3.846 3.846 0 0 0 7.538-.129h3.031a.773.773 0 0 0 .547-.228.742.742 0 0 0 .221-.547zM10.532 19.4a2.308 2.308 0 0 1-4.562.154 2.35 2.35 0 0 1-.037-.418 2.283 2.283 0 0 1 .357-1.23 2.308 2.308 0 0 1 3.911 0 2.268 2.268 0 0 1 .357 1.23c-.014.089-.02.181-.026.264zm14.788-.018a2.307 2.307 0 0 1-4.581.1 2.694 2.694 0 0 1-.025-.32 2.306 2.306 0 1 1 4.612 0 .89.89 0 0 1-.007.223zm1.457-1.064c-.031-.141-.074-.277-.117-.412a3.877 3.877 0 0 0-.99-1.537 3.85 3.85 0 0 0-5.288 0 3.877 3.877 0 0 0-.99 1.537 3.179 3.179 0 0 0-.141.541H12.02a4.118 4.118 0 0 0-.141-.541 3.841 3.841 0 0 0-7.28 0 4.51 4.51 0 0 0-.148.584l-2.281.025V18.4l.2-.492.191-.455a.818.818 0 0 0 .061-.3v-.892a.884.884 0 0 0-.061-.307l-.031-.08-.336-.774-.006-.719-.006-.35-.018-1.537v-.1a23.6 23.6 0 0 1 2.09-2.884c.3-.344.6-.683.91-1.015a36.069 36.069 0 0 1 11.584.074L22 12.886a.782.782 0 0 0 .338.16l2.312.449 1.679.326.873.172a.1.1 0 0 0 .043.006 2.033 2.033 0 0 1 .916.357c.043.031.086.068.129.1a2.406 2.406 0 0 1 .769 1.531.078.078 0 0 0 .006.037v.344l.012 1.537v.412h-2.3z" transform="translate(719 911.76) translate(-.607 -6.527)"/>
        </g>
    </g>
</svg>
