<svg xmlns="http://www.w3.org/2000/svg" width="30" height="30" viewBox="0 0 30 30">
    <defs>
        <clipPath id="eenyo6tzta">
            <path fill="#fff" stroke="#707070" d="M0 0H30V30H0z" transform="translate(1369 905)"/>
        </clipPath>
    </defs>
    <g clip-path="url(#eenyo6tzta)" transform="translate(-1369 -905)">
        <path fill="#606060" d="M28.842 14.876l-2.248-3.189V3.7l-.66-.2a36.805 36.805 0 0 0-21.087.11l-.648.2-.037 7.85v.006l-1.9 3.207-1.881 3.198v5.223h1.613v2.016h1.833v-2.016h22.962v2.016h1.833v-2.016h1.759V17.05zM6.026 5.187a35.006 35.006 0 0 1 18.735-.1v6.4l-1.607.006V9.848a2.182 2.182 0 0 0-2.181-2.181h-2.785a2.182 2.182 0 0 0-2.181 2.181v1.558a.559.559 0 0 0 .006.1l-1.863.006V9.848a2.182 2.182 0 0 0-2.181-2.181h-2.8a2.182 2.182 0 0 0-2.184 2.181v1.558a.946.946 0 0 0 .006.134H6zm11.82 6.313a.269.269 0 0 1-.012-.1V9.848a.348.348 0 0 1 .348-.348h2.786a.348.348 0 0 1 .348.348v1.558a.36.36 0 0 1-.012.086zm-9 .031a.319.319 0 0 1-.024-.128V9.848a.348.348 0 0 1 .344-.348h2.786a.348.348 0 0 1 .348.348v1.558a.423.423 0 0 1-.018.122zm-5.539 5.177l1.081-1.833.886-1.5 2.944-.012 4.722-.018 4.233-.012 4.838-.018 3.482-.012 1.106 1.57 1.3 1.833.47.666H2.916zm25.235 4.759H2.214v-2.26h26.328z" transform="translate(1368.619 906.336)"/>
    </g>
</svg>
